<?xml version="1.0" standalone="no"?>
<!DOCTYPE svg PUBLIC "-//W3C//DTD SVG 20010904//EN"
 "http://www.w3.org/TR/2001/REC-SVG-20010904/DTD/svg10.dtd">
<svg version="1.0" xmlns="http://www.w3.org/2000/svg"
 width="700.000000pt" height="700.000000pt" viewBox="0 0 700.000000 700.000000"
 preserveAspectRatio="xMidYMid meet">
<metadata>
Created by potrace 1.14, written by Peter Selinger 2001-2017
</metadata>
<g transform="translate(0.000000,700.000000) scale(0.100000,-0.100000)"
fill="#000000" stroke="none">
<path d="M4475 6530 c-357 -121 -631 -295 -921 -584 -175 -174 -336 -369 -494
-598 -30 -43 -56 -78 -59 -78 -11 0 -116 149 -153 217 -44 80 -85 192 -123
343 -64 249 -113 357 -202 446 -162 162 -328 186 -622 92 -210 -67 -367 -147
-654 -336 -334 -218 -587 -357 -802 -437 -55 -21 -113 -43 -130 -49 -58 -22
-113 -55 -141 -86 -58 -61 -47 -126 33 -184 141 -102 413 -88 681 35 35 16 66
29 69 29 3 0 -17 -17 -45 -37 -140 -106 -236 -209 -260 -281 -33 -99 87 -165
252 -138 50 8 182 52 201 66 6 4 33 20 60 35 28 15 59 35 70 45 47 39 129 93
115 75 -8 -11 -18 -22 -21 -25 -12 -11 -66 -97 -81 -130 -53 -117 -44 -190 30
-240 30 -20 49 -24 102 -24 55 1 79 7 150 41 89 42 205 120 305 207 l60 51
-24 -40 c-14 -22 -30 -47 -36 -55 -16 -21 -71 -135 -90 -189 -20 -57 -20 -125
1 -146 40 -40 111 -50 209 -30 46 10 184 85 245 134 30 24 61 49 69 55 7 6 -4
-19 -26 -54 -70 -115 -122 -244 -118 -290 1 -8 3 -25 3 -38 3 -37 79 -66 154
-58 l59 5 -22 -32 c-106 -153 -257 -328 -426 -494 -253 -249 -515 -422 -803
-529 -52 -20 -105 -42 -118 -50 -24 -15 -41 -50 -47 -94 -2 -14 -11 -81 -19
-150 -9 -69 -19 -141 -22 -161 -2 -20 -7 -54 -9 -75 -7 -55 -15 -114 -21 -147
-4 -26 40 -83 303 -387 43 -50 263 -308 1016 -1190 327 -382 356 -416 385
-449 13 -14 35 -40 49 -58 l25 -32 94 34 c316 114 647 281 899 453 340 233
614 534 956 1054 l24 37 28 -59 c28 -59 85 -120 113 -120 25 0 75 30 106 64
36 39 108 146 142 211 l26 50 -6 -60 c-24 -212 7 -373 84 -441 73 -63 141 -30
237 116 24 36 56 91 71 123 15 31 32 57 36 57 4 0 5 -6 2 -14 -17 -43 -32
-209 -30 -326 3 -158 21 -224 74 -276 30 -30 76 -49 110 -47 6 0 21 1 33 2 35
2 123 101 162 182 19 40 37 81 41 89 3 8 3 -19 0 -60 -26 -310 31 -505 171
-592 43 -26 67 -23 108 14 31 29 70 108 82 168 21 103 33 183 34 224 1 39 11
27 17 -20 27 -231 107 -427 220 -541 48 -48 74 -65 115 -77 62 -19 80 -20 112
-5 70 32 80 171 27 379 -22 85 -62 368 -76 540 -4 47 -8 103 -10 125 -6 67 -4
517 1 555 3 19 8 109 10 200 5 168 -10 289 -47 390 -85 232 -271 338 -598 340
-105 1 -146 -4 -285 -36 -245 -56 -285 -64 -334 -68 -28 -2 -51 -1 -51 3 0 5
62 71 138 148 247 252 458 407 752 550 41 21 77 38 80 38 3 1 25 11 50 22 25
11 91 37 147 57 56 21 107 44 113 51 38 46 66 380 47 560 -10 103 -1 91 -247
325 -56 53 -340 325 -455 435 -590 567 -739 711 -1059 1028 -138 136 -257 247
-266 248 -8 0 -22 2 -30 3 -8 2 -64 -13 -125 -34z m-575 -4644 c0 -2 -8 -10
-17 -17 -16 -13 -17 -12 -4 4 13 16 21 21 21 13z"/>
</g>
</svg>
